<!DOCTYPE svg PUBLIC "-//W3C//DTD SVG 1.1//EN" "http://www.w3.org/Graphics/SVG/1.1/DTD/svg11.dtd">
<!-- Uploaded to: SVG Repo, www.svgrepo.com, Transformed by: SVG Repo Mixer Tools -->
<svg width="800px" height="800px" viewBox="-7.2 -7.2 86.40 86.40" id="emoji" xmlns="http://www.w3.org/2000/svg" fill="#000000" transform="rotate(0)">
<g id="SVGRepo_bgCarrier" stroke-width="0"/>
<g id="SVGRepo_tracerCarrier" stroke-linecap="round" stroke-linejoin="round" stroke="#CCCCCC" stroke-width="0.8640000000000001"/>
<g id="SVGRepo_iconCarrier"> <g id="color"> <path fill="#92d3f5" d="M59.0349,60h-46.07A.9679.9679,0,0,1,12,59.0349v-46.07A.9679.9679,0,0,1,12.9651,12h46.07A.9679.9679,0,0,1,60,12.9651v46.07A.9679.9679,0,0,1,59.0349,60Z"/> </g> <g id="line"> <path fill="none" stroke="#000000" stroke-linejoin="round" stroke-width="3.6" d="M59.0349,60h-46.07A.9679.9679,0,0,1,12,59.0349v-46.07A.9679.9679,0,0,1,12.9651,12h46.07A.9679.9679,0,0,1,60,12.9651v46.07A.9679.9679,0,0,1,59.0349,60Z"/> </g> </g>
</svg>